<svg width="2240" height="1330" viewBox="0 0 2240 1330" fill="none" xmlns="http://www.w3.org/2000/svg">
<mask id="mask0_6971_491" style="mask-type:alpha" maskUnits="userSpaceOnUse" x="0" y="0" width="2240" height="1330">
<path d="M0 0H2240V1330H0V0Z" fill="#172327"/>
</mask>
<g mask="url(#mask0_6971_491)">
<path d="M0 0H2240V1330H0V0Z" fill="#FFE2E0"/>
<circle opacity="0.2" cx="1120.5" cy="665.5" r="986.5" fill="white"/>
<path d="M400 266H1660.54C1760.2 266 1841 346.796 1841 446.463V1113.28H400V266Z" fill="#B3BEFA" stroke="black" stroke-width="3"/>
<path d="M482.009 338.546C486.267 339.701 490.454 343.671 490.454 350.889C490.454 359.335 484.607 364.604 475.367 364.604H455.733V315.085H475.223C483.741 315.085 488.65 320.355 488.65 327.429C488.65 334.214 484.391 337.535 482.009 338.401V338.546ZM482.225 328.367C482.225 323.387 479.049 320.644 473.996 320.644H462.085V336.38H473.924C479.554 336.38 482.225 332.915 482.225 328.367ZM475.223 359.118C480.565 359.118 484.03 356.231 484.03 350.384C484.03 344.465 480.493 341.577 474.79 341.577H462.085V359.118H475.223ZM522.654 329.234H529.006V364.604H523.015L522.726 359.407C520.561 362.655 516.879 364.965 511.826 364.965C504.102 364.965 499.338 360.057 499.338 352.333V329.234H505.763V351.395C505.763 356.592 508.578 359.552 513.703 359.552C518.828 359.552 522.654 355.942 522.654 349.806V329.234ZM544.653 338.834C544.653 346.919 565.659 340.783 565.659 355.004C565.659 360.851 560.606 364.965 551.511 364.965C541.766 364.965 537.579 361.067 537.434 354.21L543.281 354.282C543.642 357.675 545.808 359.552 551.583 359.552C557.069 359.552 559.379 357.675 559.379 355.004C559.379 346.775 538.373 352.622 538.373 338.834C538.373 332.987 543.354 328.873 551.944 328.873C560.462 328.873 564.865 332.771 565.154 339.628L559.234 339.556C558.946 336.091 556.275 334.287 551.799 334.287C546.963 334.287 544.653 336.019 544.653 338.834ZM582.094 317.684C582.094 320.211 580.145 322.015 577.691 322.015C575.236 322.015 573.287 320.211 573.287 317.684C573.287 315.23 575.236 313.353 577.691 313.353C580.145 313.353 582.094 315.23 582.094 317.684ZM574.298 364.604V329.234H580.723V364.604H574.298ZM609.261 328.873C617.057 328.873 622.038 333.637 622.038 342.299V364.604H615.613V343.599C615.613 337.607 612.798 334.287 607.529 334.287C601.826 334.287 598 338.04 598 344.032V364.604H591.648V329.234H597.639L597.928 334.503C600.166 331.255 603.919 328.873 609.261 328.873ZM663.366 346.991V348.579H636.946C637.451 355.293 641.277 359.552 647.485 359.552C653.693 359.552 656.075 356.303 656.725 353.416H663.149C661.778 359.84 656.869 364.965 647.413 364.965C636.368 364.965 630.377 357.386 630.377 346.991C630.377 336.38 637.379 328.873 647.268 328.873C657.158 328.873 663.366 335.586 663.366 346.991ZM647.341 334.287C641.927 334.287 638.101 337.968 637.09 343.887H656.941C656.147 337.535 652.682 334.287 647.341 334.287ZM676.862 338.834C676.862 346.919 697.868 340.783 697.868 355.004C697.868 360.851 692.815 364.965 683.72 364.965C673.975 364.965 669.788 361.067 669.644 354.21L675.491 354.282C675.852 357.675 678.017 359.552 683.792 359.552C689.278 359.552 691.588 357.675 691.588 355.004C691.588 346.775 670.582 352.622 670.582 338.834C670.582 332.987 675.563 328.873 684.153 328.873C692.671 328.873 697.074 332.771 697.363 339.628L691.444 339.556C691.155 336.091 688.484 334.287 684.008 334.287C679.172 334.287 676.862 336.019 676.862 338.834ZM711.271 338.834C711.271 346.919 732.277 340.783 732.277 355.004C732.277 360.851 727.224 364.965 718.129 364.965C708.384 364.965 704.197 361.067 704.053 354.21L709.9 354.282C710.261 357.675 712.426 359.552 718.201 359.552C723.687 359.552 725.997 357.675 725.997 355.004C725.997 346.775 704.991 352.622 704.991 338.834C704.991 332.987 709.972 328.873 718.562 328.873C727.08 328.873 731.483 332.771 731.772 339.628L725.853 339.556C725.564 336.091 722.893 334.287 718.418 334.287C713.581 334.287 711.271 336.019 711.271 338.834Z" fill="black"/>
<rect x="1451.32" y="270.269" width="425.141" height="425.143" rx="72.0582" transform="rotate(17.8486 1451.32 270.269)" fill="white"/>
<path d="M562 863.089L741.683 639.721C796.017 572.178 894.817 561.47 962.36 615.803L1147.1 764.417L869.042 1110.08L562 863.089Z" fill="#FFF4D2" stroke="black" stroke-width="3"/>
<path d="M1359.27 552.624C1350.35 579.777 1336.17 604.908 1317.54 626.581C1298.91 648.254 1276.19 666.045 1250.68 678.938C1225.17 691.831 1197.37 699.573 1168.87 701.723C1140.37 703.873 1111.73 700.389 1084.57 691.468C1057.42 682.548 1032.29 668.367 1010.62 649.734C988.944 631.102 971.153 608.383 958.26 582.875C945.367 557.367 937.625 529.569 935.475 501.069C933.325 472.569 936.809 443.924 945.73 416.77L1152.5 484.697L1359.27 552.624Z" fill="#E6EDED"/>
<rect x="1259.93" y="602.909" width="435.808" height="418.092" rx="209.046" transform="rotate(34.0137 1259.93 602.909)" fill="#C6D9D8" stroke="black" stroke-width="3"/>
<path d="M127.041 1184.91V1162.39" stroke="black" stroke-width="3" stroke-miterlimit="10"/>
<path d="M98 1154.59H119.543" stroke="black" stroke-width="3" stroke-miterlimit="10"/>
<path d="M127.041 1124.3V1146.81" stroke="black" stroke-width="3" stroke-miterlimit="10"/>
<path d="M156.078 1154.59H134.536" stroke="black" stroke-width="3" stroke-miterlimit="10"/>
<path d="M1940.04 224.038V201.522" stroke="black" stroke-width="3" stroke-miterlimit="10"/>
<path d="M1911 193.718H1932.54" stroke="black" stroke-width="3" stroke-miterlimit="10"/>
<path d="M1940.04 163.426V185.941" stroke="black" stroke-width="3" stroke-miterlimit="10"/>
<path d="M1969.08 193.718H1947.54" stroke="black" stroke-width="3" stroke-miterlimit="10"/>
<path d="M2138.04 869.491V846.976" stroke="black" stroke-width="3" stroke-miterlimit="10"/>
<path d="M2109 839.171H2130.54" stroke="black" stroke-width="3" stroke-miterlimit="10"/>
<path d="M2138.04 808.879V831.394" stroke="black" stroke-width="3" stroke-miterlimit="10"/>
<path d="M2167.08 839.171H2145.54" stroke="black" stroke-width="3" stroke-miterlimit="10"/>
<circle cx="1097.19" cy="566.021" r="8.46389" transform="rotate(13.5278 1097.19 566.021)" fill="black"/>
<circle cx="1146.56" cy="577.901" r="8.46389" transform="rotate(13.5278 1146.56 577.901)" fill="black"/>
<circle cx="856.888" cy="757.248" r="8.46389" transform="rotate(-51.2523 856.888 757.248)" fill="black"/>
<circle cx="888.674" cy="717.639" r="8.46389" transform="rotate(-51.2523 888.674 717.639)" fill="black"/>
<circle cx="1293.35" cy="835.943" r="8.46389" transform="rotate(-0.979238 1293.35 835.943)" fill="black"/>
<circle cx="1344.13" cy="835.076" r="8.46389" transform="rotate(-0.979238 1344.13 835.076)" fill="black"/>
<circle cx="1486.81" cy="608.623" r="8.46389" transform="rotate(-0.979238 1486.81 608.623)" fill="black"/>
<circle cx="1537.59" cy="607.755" r="8.46389" transform="rotate(-0.979238 1537.59 607.755)" fill="black"/>
<mask id="mask1_6971_491" style="mask-type:alpha" maskUnits="userSpaceOnUse" x="1105" y="682" width="437" height="432">
<rect x="1259.93" y="602.91" width="435.808" height="418.092" rx="209.046" transform="rotate(34.0137 1259.93 602.91)" fill="#C6D9D8" stroke="black" stroke-width="3"/>
</mask>
<g mask="url(#mask1_6971_491)">
<path d="M1518 750.5C1518 724.958 1512.97 699.666 1503.19 676.068C1493.42 652.47 1479.09 631.029 1461.03 612.968C1442.97 594.907 1421.53 580.58 1397.93 570.805C1374.33 561.031 1349.04 556 1323.5 556C1297.96 556 1272.67 561.031 1249.07 570.805C1225.47 580.58 1204.03 594.907 1185.97 612.968C1167.91 631.029 1153.58 652.47 1143.81 676.068C1134.03 699.666 1129 724.958 1129 750.5L1323.5 750.5H1518Z" fill="black"/>
</g>
<mask id="mask2_6971_491" style="mask-type:alpha" maskUnits="userSpaceOnUse" x="559" y="579" width="591" height="534">
<path d="M562 863.091L741.683 639.723C796.017 572.18 894.817 561.471 962.36 615.805L1147.1 764.419L869.042 1110.08L562 863.091Z" fill="#FFF4D2" stroke="black" stroke-width="3"/>
</mask>
<g mask="url(#mask2_6971_491)">
<circle cx="825" cy="542.001" r="123" fill="black"/>
</g>
<circle cx="1479.82" cy="357.351" r="12" transform="rotate(-21.2606 1479.82 357.351)" fill="black"/>
<circle cx="1502.18" cy="348.648" r="12" transform="rotate(-21.2606 1502.18 348.648)" fill="black"/>
</g>
</svg>
